<?xml version="1.0" standalone="no"?><!DOCTYPE svg PUBLIC "-//W3C//DTD SVG 1.1//EN" "http://www.w3.org/Graphics/SVG/1.1/DTD/svg11.dtd">
<svg x="0.0000mm" y="0.0000mm" width="82.5500mm" height="26.4580mm" viewBox="0.0000 0.0000 82.5500 26.4580" version="1.1" xmlns="http://www.w3.org/2000/svg" shape-rendering="crispEdges">
<title>TBarCode - 11.15.0.16817</title>
<desc>BarCode licensed to MEM:TEC-IT Datenverarbeitung GmbH Internal License</desc>
<g fill="rgb(6%, 6%, 8%)">
</g>
<g fill="rgb(65%,65%,71%)">
<rect x="0.0000" y="0.0000" width="82.5500" height="26.4580" />
</g>
<g fill="rgb(6%, 6%, 8%)">
</g>
<g fill="rgb(6%, 6%, 8%)">
<rect x="0.0000" y="0.0000" width="1.0583" height="26.4580" />
<rect x="1.5875" y="0.0000" width="0.5292" height="26.4580" />
<rect x="3.1750" y="0.0000" width="0.5292" height="26.4580" />
<rect x="5.8208" y="0.0000" width="1.0583" height="26.4580" />
<rect x="7.4083" y="0.0000" width="1.5875" height="26.4580" />
<rect x="9.5250" y="0.0000" width="0.5292" height="26.4580" />
<rect x="11.6417" y="0.0000" width="0.5292" height="26.4580" />
<rect x="12.7000" y="0.0000" width="1.0583" height="26.4580" />
<rect x="15.3458" y="0.0000" width="1.5875" height="26.4580" />
<rect x="17.4625" y="0.0000" width="1.0583" height="26.4580" />
<rect x="20.1083" y="0.0000" width="0.5292" height="26.4580" />
<rect x="22.2250" y="0.0000" width="0.5292" height="26.4580" />
<rect x="23.2833" y="0.0000" width="0.5292" height="26.4580" />
<rect x="25.4000" y="0.0000" width="1.0583" height="26.4580" />
<rect x="26.9875" y="0.0000" width="1.5875" height="26.4580" />
<rect x="29.1042" y="0.0000" width="0.5292" height="26.4580" />
<rect x="31.2208" y="0.0000" width="1.0583" height="26.4580" />
<rect x="32.8083" y="0.0000" width="1.5875" height="26.4580" />
<rect x="34.9250" y="0.0000" width="1.0583" height="26.4580" />
<rect x="36.5125" y="0.0000" width="1.5875" height="26.4580" />
<rect x="39.6875" y="0.0000" width="0.5292" height="26.4580" />
<rect x="40.7458" y="0.0000" width="1.0583" height="26.4580" />
<rect x="43.3917" y="0.0000" width="0.5292" height="26.4580" />
<rect x="44.4500" y="0.0000" width="1.5875" height="26.4580" />
<rect x="46.5667" y="0.0000" width="0.5292" height="26.4580" />
<rect x="47.6250" y="0.0000" width="0.5292" height="26.4580" />
<rect x="49.7417" y="0.0000" width="1.0583" height="26.4580" />
<rect x="52.3875" y="0.0000" width="0.5292" height="26.4580" />
<rect x="53.4458" y="0.0000" width="1.0583" height="26.4580" />
<rect x="56.0917" y="0.0000" width="0.5292" height="26.4580" />
<rect x="58.2083" y="0.0000" width="0.5292" height="26.4580" />
<rect x="60.3250" y="0.0000" width="1.0583" height="26.4580" />
<rect x="61.9125" y="0.0000" width="0.5292" height="26.4580" />
<rect x="64.0292" y="0.0000" width="1.5875" height="26.4580" />
<rect x="66.1458" y="0.0000" width="1.0583" height="26.4580" />
<rect x="68.7917" y="0.0000" width="0.5292" height="26.4580" />
<rect x="69.8500" y="0.0000" width="1.0583" height="26.4580" />
<rect x="71.4375" y="0.0000" width="1.0583" height="26.4580" />
<rect x="74.0833" y="0.0000" width="1.0583" height="26.4580" />
<rect x="75.6708" y="0.0000" width="1.0583" height="26.4580" />
<rect x="78.3167" y="0.0000" width="1.5875" height="26.4580" />
<rect x="80.4333" y="0.0000" width="0.5292" height="26.4580" />
<rect x="81.4917" y="0.0000" width="1.0583" height="26.4580" />
</g>
</svg>
